<?xml version="1.0" encoding="UTF-8"?><svg id="Layer_1" xmlns="http://www.w3.org/2000/svg" viewBox="0 0 858.98 716"><defs><style>.cls-1{fill:#4d4d4d;}.cls-1,.cls-2{stroke-width:0px;}</style></defs><path class="cls-2" d="M322.41,0C346.25,0,358.17,12,358.17,36s-11.92,36-35.77,36h-143.09c-30,0-55.38,10.48-76.16,31.42s-31.16,46.22-31.16,75.83v357.5c0,29.62,10.47,54.91,31.44,75.84,20.95,20.94,46.25,31.41,75.88,31.41h143.09c23.84,0,35.77,12,35.77,36s-11.92,36-35.77,36h-143.09c-49.5,0-91.77-17.44-126.78-52.34C17.5,628.77,0,586.55,0,537V179c0-49.53,17.5-91.75,52.53-126.66C87.55,17.45,129.81,0,179.31,0h143.09Z"/><path class="cls-2" d="M679.67,0c49.5,0,91.77,17.45,126.78,52.34,35.03,34.91,52.53,77.13,52.53,126.66v358c0,49.55-17.5,91.77-52.53,126.66-35.02,34.91-77.28,52.34-126.78,52.34h-143.09c-23.84,0-35.77-12-35.77-36,0-24,11.92-36,35.77-36h143.09c29.62,0,54.92-10.47,75.88-31.41,20.97-20.94,31.44-46.22,31.44-75.84V179.25c0-29.61-10.37-54.89-31.16-75.83-20.78-20.94-46.16-31.42-76.16-31.42h-143.09c-23.84,0-35.77-12-35.77-36,0-24,11.92-36,35.77-36h143.09Z"/><g id="text"><rect class="cls-1" x="147.32" y="94.56" width="197.87" height="15" rx="7.5" ry="7.5"/><rect class="cls-1" x="94.47" y="145.87" width="140.17" height="15" rx="7.5" ry="7.5"/><rect class="cls-1" x="146.55" y="195.28" width="140.17" height="14.63" rx="7.32" ry="7.32"/><rect class="cls-1" x="95.23" y="195.28" width="42.89" height="14.63" rx="7.32" ry="7.32"/><rect class="cls-1" x="294.64" y="195.64" width="51.57" height="14.63" rx="7.32" ry="7.32"/><rect class="cls-1" x="315.32" y="246.88" width="30.64" height="13.95" rx="6.98" ry="6.98"/><rect class="cls-1" x="242.3" y="145.11" width="103.4" height="15" rx="7.5" ry="7.5"/><rect class="cls-1" x="207.83" y="245.83" width="103.4" height="13.95" rx="6.98" ry="6.98"/><rect class="cls-1" x="94.85" y="246.18" width="103.4" height="13.95" rx="6.98" ry="6.98"/><rect class="cls-1" x="148.09" y="295.62" width="197.87" height="13.95" rx="6.98" ry="6.98"/><rect class="cls-1" x="95.23" y="345.77" width="140.17" height="14.63" rx="7.32" ry="7.32"/><rect class="cls-1" x="147.32" y="395.19" width="140.17" height="14.63" rx="7.32" ry="7.32"/><rect class="cls-1" x="96" y="395.19" width="42.89" height="14.63" rx="7.32" ry="7.32"/><rect class="cls-1" x="95.23" y="296.67" width="42.89" height="13.95" rx="6.98" ry="6.98"/><rect class="cls-1" x="145.02" y="495.15" width="140.17" height="15" rx="7.5" ry="7.5"/><rect class="cls-1" x="93.7" y="495.15" width="42.89" height="15" rx="7.5" ry="7.5"/><rect class="cls-1" x="293.11" y="495.92" width="51.57" height="15" rx="7.5" ry="7.5"/><rect class="cls-1" x="313.79" y="547.13" width="30.64" height="13.95" rx="6.98" ry="6.98"/><rect class="cls-1" x="206.3" y="546.09" width="103.4" height="13.95" rx="6.98" ry="6.98"/><rect class="cls-1" x="93.32" y="546.44" width="103.4" height="13.95" rx="6.98" ry="6.98"/><rect class="cls-1" x="146.55" y="594.73" width="197.87" height="15" rx="7.5" ry="7.5"/><rect class="cls-1" x="295.4" y="395.56" width="51.57" height="14.63" rx="7.32" ry="7.32"/><rect class="cls-1" x="316.09" y="446.79" width="30.64" height="13.95" rx="6.98" ry="6.98"/><rect class="cls-1" x="243.06" y="345.41" width="103.4" height="14.63" rx="7.32" ry="7.32"/><rect class="cls-1" x="208.6" y="445.75" width="103.4" height="13.95" rx="6.98" ry="6.98"/><rect class="cls-1" x="95.62" y="446.1" width="103.4" height="13.95" rx="6.98" ry="6.98"/><rect class="cls-1" x="510.4" y="593.53" width="199.77" height="15" rx="7.5" ry="7.5" transform="translate(1220.56 1202.07) rotate(-180)"/><rect class="cls-1" x="622.01" y="542.21" width="141.51" height="15" rx="7.5" ry="7.5" transform="translate(1385.53 1099.43) rotate(-180)"/><rect class="cls-1" x="569.43" y="493.18" width="141.51" height="14.63" rx="7.32" ry="7.32" transform="translate(1280.36 1000.99) rotate(180)"/><rect class="cls-1" x="719.44" y="493.18" width="43.3" height="14.63" rx="7.32" ry="7.32" transform="translate(1482.19 1000.99) rotate(180)"/><rect class="cls-1" x="509.37" y="492.81" width="52.07" height="14.63" rx="7.32" ry="7.32" transform="translate(1070.8 1000.25) rotate(180)"/><rect class="cls-1" x="509.63" y="442.26" width="30.93" height="13.95" rx="6.98" ry="6.98" transform="translate(1050.18 898.47) rotate(180)"/><rect class="cls-1" x="509.88" y="542.98" width="104.39" height="15" rx="7.5" ry="7.5" transform="translate(1124.16 1100.96) rotate(-180)"/><rect class="cls-1" x="544.68" y="443.3" width="104.39" height="13.95" rx="6.98" ry="6.98" transform="translate(1193.76 900.56) rotate(180)"/><rect class="cls-1" x="658.74" y="442.95" width="104.39" height="13.95" rx="6.98" ry="6.98" transform="translate(1421.88 899.86) rotate(180)"/><rect class="cls-1" x="509.63" y="393.52" width="199.77" height="13.95" rx="6.98" ry="6.98" transform="translate(1219.02 800.99) rotate(180)"/><rect class="cls-1" x="621.24" y="342.68" width="141.51" height="14.63" rx="7.32" ry="7.32" transform="translate(1383.98 700) rotate(180)"/><rect class="cls-1" x="568.65" y="293.26" width="141.51" height="14.63" rx="7.32" ry="7.32" transform="translate(1278.82 601.16) rotate(180)"/><rect class="cls-1" x="718.67" y="293.26" width="43.3" height="14.63" rx="7.32" ry="7.32" transform="translate(1480.65 601.16) rotate(180)"/><rect class="cls-1" x="719.44" y="392.47" width="43.3" height="13.95" rx="6.98" ry="6.98" transform="translate(1482.19 798.89) rotate(180)"/><rect class="cls-1" x="570.97" y="192.94" width="141.51" height="15" rx="7.5" ry="7.5" transform="translate(1283.46 400.88) rotate(180)"/><rect class="cls-1" x="720.99" y="192.94" width="43.3" height="15" rx="7.5" ry="7.5" transform="translate(1485.29 400.88) rotate(-180)"/><rect class="cls-1" x="510.91" y="192.17" width="52.07" height="15" rx="7.5" ry="7.5" transform="translate(1073.9 399.34) rotate(180)"/><rect class="cls-1" x="511.17" y="142" width="30.93" height="13.95" rx="6.98" ry="6.98" transform="translate(1053.28 297.96) rotate(180)"/><rect class="cls-1" x="546.23" y="143.05" width="104.39" height="13.95" rx="6.98" ry="6.98" transform="translate(1196.85 300.05) rotate(180)"/><rect class="cls-1" x="660.29" y="142.7" width="104.39" height="13.95" rx="6.98" ry="6.98" transform="translate(1424.97 299.35) rotate(180)"/><rect class="cls-1" x="511.17" y="93.36" width="199.77" height="15" rx="7.5" ry="7.5" transform="translate(1222.11 201.73) rotate(180)"/><rect class="cls-1" x="508.59" y="292.9" width="52.07" height="14.63" rx="7.32" ry="7.32" transform="translate(1069.26 600.43) rotate(180)"/><rect class="cls-1" x="508.85" y="242.34" width="30.93" height="13.95" rx="6.98" ry="6.98" transform="translate(1048.64 498.64) rotate(180)"/><rect class="cls-1" x="509.11" y="343.05" width="104.39" height="14.63" rx="7.32" ry="7.32" transform="translate(1122.61 700.73) rotate(-180)"/><rect class="cls-1" x="543.91" y="243.39" width="104.39" height="13.95" rx="6.98" ry="6.98" transform="translate(1192.21 500.73) rotate(180)"/><rect class="cls-1" x="657.97" y="243.04" width="104.39" height="13.95" rx="6.98" ry="6.98" transform="translate(1420.33 500.03) rotate(180)"/></g></svg>